<svg id="LOGO" xmlns="http://www.w3.org/2000/svg" viewBox="0 0 1135.95 848.2"><defs><style>.cls-1{fill:#022285;}.cls-2{fill:#fff;}</style></defs><title>logo</title><path class="cls-1" d="M61.14,657.61C47.66,524.22,111.7,394.71,223.82,321.2c88.87-58.27,224.6-125.48,396-143.7,48.75-5.18,92.55-4.43,131.77.56,182.72,23.25,297.51,209.62,237.52,383.77-39.33,114.18-100.2,255.34-185.7,360-157.05,192.3-470.66,52.81-515.82,31.31-3.53-1.68-7.08-3.3-10.64-4.91C245.53,934,80.62,850.25,61.14,657.61Z" transform="translate(-27.3 -173.95)"/><path class="cls-2" d="M601.45,996.25q-12.19,0-19.28-7.09t-7.09-19.28V823.33q3.12-.57,9.92-1.56a90.71,90.71,0,0,1,13-1,59.24,59.24,0,0,1,11.48,1,20.46,20.46,0,0,1,8.36,3.54,15.32,15.32,0,0,1,5.1,7.09,34.58,34.58,0,0,1,1.7,11.91v112h64.92a37.42,37.42,0,0,1,3.69,8.36,35.19,35.19,0,0,1,1.7,10.91q0,11.34-4.82,16t-12.76,4.68Z" transform="translate(-27.3 -173.95)"/><path class="cls-2" d="M770.11,994.26a78.68,78.68,0,0,1-9.78,1.7,104,104,0,0,1-13.18.85,59.17,59.17,0,0,1-11.48-1,20.37,20.37,0,0,1-8.36-3.54,15.3,15.3,0,0,1-5.1-7.09,34.54,34.54,0,0,1-1.7-11.91V823.61q3.12-.56,9.92-1.56a90.54,90.54,0,0,1,13-1,59.13,59.13,0,0,1,11.48,1,20.44,20.44,0,0,1,8.36,3.54,15.32,15.32,0,0,1,5.1,7.09,34.56,34.56,0,0,1,1.7,11.9Z" transform="translate(-27.3 -173.95)"/><path class="cls-2" d="M855.72,927.08q-12.48-4.25-22.68-8.65a69.49,69.49,0,0,1-17.58-10.63A44,44,0,0,1,804,892.92q-4.11-8.64-4.11-21.12,0-24.09,18.57-38.55t52-14.46a142,142,0,0,1,22.68,1.7,67.73,67.73,0,0,1,18,5.24,31.4,31.4,0,0,1,11.76,9.07,20.55,20.55,0,0,1,4.25,12.9,22.66,22.66,0,0,1-3.4,12.61,35.26,35.26,0,0,1-8.22,8.93q-6.24-4-16.73-6.94a83.87,83.87,0,0,0-23-3q-12.76,0-18.71,3.54t-6,8.93a8.24,8.24,0,0,0,3.68,6.95q3.68,2.7,11.06,5l15,4.82q26.64,8.51,41,21.69t14.32,35.86q0,24.1-19,39t-55.84,14.88a130,130,0,0,1-24.24-2.13,76.63,76.63,0,0,1-19.56-6.24,36.07,36.07,0,0,1-13-10.21,22.41,22.41,0,0,1-4.68-14,21.26,21.26,0,0,1,4.82-14,36.77,36.77,0,0,1,10.49-8.93,76.9,76.9,0,0,0,19.42,10.77,67.65,67.65,0,0,0,25.09,4.54q13.89,0,19.56-4.25t5.67-9.92a9.71,9.71,0,0,0-4.54-8.65A58.84,58.84,0,0,0,867.63,931Z" transform="translate(-27.3 -173.95)"/><path class="cls-2" d="M951.54,863.3a36.56,36.56,0,0,1-3.68-8.5,37.4,37.4,0,0,1-1.7-11.34q0-11.05,5-15.87t12.9-4.82h123.6a36.93,36.93,0,0,1,3.68,8.5,37.43,37.43,0,0,1,1.7,11.34q0,11.06-5,15.88t-12.9,4.82h-31.47v131a78.72,78.72,0,0,1-9.78,1.7,104,104,0,0,1-13.18.85,59.16,59.16,0,0,1-11.48-1,20.37,20.37,0,0,1-8.36-3.54,15.31,15.31,0,0,1-5.1-7.09,34.55,34.55,0,0,1-1.7-11.91v-110Z" transform="translate(-27.3 -173.95)"/><path class="cls-2" d="M132.21,332.88a31.29,31.29,0,0,1-3.15-7.27,32,32,0,0,1-1.45-9.7q0-9.46,4.24-13.58a15.17,15.17,0,0,1,11-4.12H248.59a31.59,31.59,0,0,1,3.15,7.27,32,32,0,0,1,1.45,9.7q0,9.46-4.24,13.58a15.16,15.16,0,0,1-11,4.12H211v112a67.43,67.43,0,0,1-8.37,1.45,88.93,88.93,0,0,1-11.27.73,50.56,50.56,0,0,1-9.82-.85,17.42,17.42,0,0,1-7.15-3,13.09,13.09,0,0,1-4.36-6.06A29.55,29.55,0,0,1,168.58,427V332.88Z" transform="translate(-27.3 -173.95)"/><path class="cls-2" d="M260.24,372.16q0-18.91,5.94-33.46a67.45,67.45,0,0,1,40.49-39.28,92,92,0,0,1,60.37,0,70.3,70.3,0,0,1,24.37,14.91,68.56,68.56,0,0,1,16.37,24.37q5.94,14.55,5.94,33.46t-5.82,33.58a67.78,67.78,0,0,1-16.12,24.49,68.86,68.86,0,0,1-24.37,14.91,89.11,89.11,0,0,1-30.55,5.09A87.24,87.24,0,0,1,306.3,445a68.08,68.08,0,0,1-24.25-15.15,70,70,0,0,1-16-24.49Q260.24,390.83,260.24,372.16Zm43.64,0q0,22.07,9,33t24,10.91q15.28,0,24.25-10.91t9-33q0-21.82-8.85-32.73T337.1,328.51q-15,0-24.13,10.79T303.88,372.16Z" transform="translate(-27.3 -173.95)"/><path class="cls-2" d="M260.16,764.73a119.79,119.79,0,0,1-14.82,2.58,157.79,157.79,0,0,1-20,1.29,89.57,89.57,0,0,1-17.4-1.5,30.86,30.86,0,0,1-12.67-5.37A23.19,23.19,0,0,1,187.56,751q-2.58-6.87-2.58-18v-67H102.49v98.82a119.76,119.76,0,0,1-14.82,2.58,157.78,157.78,0,0,1-20,1.29,89.55,89.55,0,0,1-17.4-1.5,30.86,30.86,0,0,1-12.67-5.37A23.2,23.2,0,0,1,29.88,751q-2.58-6.87-2.58-18V506.09q4.72-.86,15-2.36a137.31,137.31,0,0,1,19.76-1.5,89.67,89.67,0,0,1,17.4,1.5,31,31,0,0,1,12.67,5.37,23.24,23.24,0,0,1,7.73,10.74q2.58,6.88,2.58,18v68.74H185V506.09q4.72-.86,15-2.36a137.3,137.3,0,0,1,19.76-1.5,89.65,89.65,0,0,1,17.4,1.5,31,31,0,0,1,12.67,5.37,23.24,23.24,0,0,1,7.73,10.74q2.58,6.88,2.58,18Z" transform="translate(-27.3 -173.95)"/><path class="cls-2" d="M303.13,635.84q0-33.51,10.53-59.29t28.79-43.18a122.25,122.25,0,0,1,43-26.42,163.07,163.07,0,0,1,107,0,124.56,124.56,0,0,1,43.18,26.42q18.47,17.4,29,43.18t10.53,59.29q0,33.51-10.31,59.5T536.2,738.74A122,122,0,0,1,493,765.16q-24.92,9-54.13,9t-54.13-9.24a120.61,120.61,0,0,1-43-26.85q-18-17.61-28.36-43.39T303.13,635.84Zm77.33,0q0,39.1,15.9,58.43t42.53,19.33q27.07,0,43-19.33t15.9-58.43q0-38.67-15.68-58t-42.75-19.33q-26.64,0-42.75,19.12T380.46,635.84Z" transform="translate(-27.3 -173.95)"/><path class="cls-2" d="M605.16,635.84q0-33.51,10.53-59.29t28.79-43.18a122.25,122.25,0,0,1,43-26.42,163.07,163.07,0,0,1,107,0,124.56,124.56,0,0,1,43.18,26.42q18.47,17.4,29,43.18t10.53,59.29q0,33.51-10.31,59.5t-28.57,43.39a122,122,0,0,1-43.18,26.42q-24.92,9-54.13,9t-54.13-9.24a120.61,120.61,0,0,1-43-26.85q-18-17.61-28.36-43.39T605.16,635.84Zm77.33,0q0,39.1,15.9,58.43t42.53,19.33q27.07,0,43-19.33t15.9-58.43q0-38.67-15.68-58t-42.75-19.33q-26.64,0-42.75,19.12T682.49,635.84Z" transform="translate(-27.3 -173.95)"/><path class="cls-2" d="M1018.89,773.32q-7.31,0-16.76-.43t-19.55-1.72q-10.1-1.29-20.19-3.22a101.35,101.35,0,0,1-18.69-5.37q-23.63-9-23.63-31.36V530.58q0-9,4.94-14a35.32,35.32,0,0,1,13.53-7.95,180.36,180.36,0,0,1,39.1-7.95q20.62-1.93,36.95-1.93,33.51,0,60.79,8.16t46.83,25.13q19.55,17,30.29,42.75t10.74,61q0,34.38-10.31,59.93a115.64,115.64,0,0,1-29.43,43q-19.12,17.4-45.76,26T1018.89,773.32ZM994.83,710.6q4.72.87,11.6,1.5t12.89.64a80.58,80.58,0,0,0,26.85-4.3,53.89,53.89,0,0,0,21.05-13.32q8.8-9,13.75-23.42t4.94-34.59q0-38.67-18-58.22t-48.12-19.55q-6,0-12.24.43t-12.67,1.29Z" transform="translate(-27.3 -173.95)"/></svg>