<svg id="LOGO" xmlns="http://www.w3.org/2000/svg" viewBox="0 0 3947.78 1004.58"><defs><style>.cls-1{fill:#fff;}.cls-2{fill:#022285;}</style></defs><title>logo_sup</title><path class="cls-1" d="M3504.58,879.32q-21.8,0-34.46-12.67t-12.67-34.46v-262q5.57-1,17.74-2.79a162.17,162.17,0,0,1,23.31-1.77,105.9,105.9,0,0,1,20.53,1.77,36.58,36.58,0,0,1,14.95,6.34,27.39,27.39,0,0,1,9.12,12.67q3,8.11,3,21.29V807.86h116.05a66.9,66.9,0,0,1,6.59,14.95,62.91,62.91,0,0,1,3,19.51q0,20.28-8.62,28.63t-22.8,8.36Z" transform="translate(-435.56 -64.64)"/><path class="cls-1" d="M3806.11,875.77a140.65,140.65,0,0,1-17.48,3,185.85,185.85,0,0,1-23.56,1.52,105.79,105.79,0,0,1-20.53-1.77,36.42,36.42,0,0,1-14.95-6.34,27.35,27.35,0,0,1-9.12-12.67q-3-8.1-3-21.29V570.69q5.57-1,17.74-2.79a161.87,161.87,0,0,1,23.31-1.77A105.72,105.72,0,0,1,3779,567.9a36.55,36.55,0,0,1,14.95,6.33,27.39,27.39,0,0,1,9.12,12.67q3,8.11,3,21.28Z" transform="translate(-435.56 -64.64)"/><path class="cls-1" d="M3959.16,755.66q-22.31-7.6-40.54-15.46a124.23,124.23,0,0,1-31.42-19,78.59,78.59,0,0,1-20.53-26.61q-7.35-15.45-7.35-37.76,0-43.07,33.2-68.92t93-25.85a253.8,253.8,0,0,1,40.54,3q18.74,3,32.18,9.38t21,16.22a36.75,36.75,0,0,1,7.6,23.06q0,13.18-6.08,22.55a63,63,0,0,1-14.7,16q-11.15-7.09-29.9-12.41a149.93,149.93,0,0,0-41-5.32q-22.81,0-33.45,6.33t-10.64,16q0,7.6,6.59,12.42t19.76,8.87l26.86,8.61q47.63,15.2,73.23,38.77t25.59,64.11q0,43.08-34,69.68t-99.84,26.61a232.32,232.32,0,0,1-43.33-3.8q-20-3.8-35-11.15t-23.31-18.24a40.07,40.07,0,0,1-8.36-25.09q0-14.69,8.62-25.09a65.73,65.73,0,0,1,18.75-16q14.18,11.15,34.71,19.26a120.94,120.94,0,0,0,44.85,8.11q24.83,0,35-7.6t10.14-17.74q0-10.13-8.11-15.46t-22.81-10.39Z" transform="translate(-435.56 -64.64)"/><path class="cls-1" d="M4130.45,641.63a65.36,65.36,0,0,1-6.59-15.2,66.87,66.87,0,0,1-3-20.27q0-19.76,8.87-28.38t23.06-8.62h221a66,66,0,0,1,6.59,15.2,66.91,66.91,0,0,1,3,20.27q0,19.77-8.87,28.38t-23.06,8.61h-56.25V875.77a140.73,140.73,0,0,1-17.48,3,185.88,185.88,0,0,1-23.57,1.52,105.77,105.77,0,0,1-20.52-1.77,36.42,36.42,0,0,1-15-6.34,27.36,27.36,0,0,1-9.12-12.67q-3-8.1-3-21.29V641.63Z" transform="translate(-435.56 -64.64)"/><path class="cls-1" d="M442.33,394.3a46,46,0,0,1-4.63-10.69,47,47,0,0,1-2.14-14.25q0-13.89,6.23-19.95T458,343.37H613.3a46.4,46.4,0,0,1,4.63,10.69,47,47,0,0,1,2.14,14.25q0,13.89-6.23,19.95t-16.21,6.06H558.09V558.86A99.06,99.06,0,0,1,545.8,561a130.64,130.64,0,0,1-16.56,1.07,74.27,74.27,0,0,1-14.43-1.25,25.58,25.58,0,0,1-10.51-4.45,19.23,19.23,0,0,1-6.41-8.91q-2.14-5.69-2.14-15V394.3Z" transform="translate(-435.56 -64.64)"/><path class="cls-1" d="M630.4,452q0-27.78,8.73-49.15T663,367.06a101.36,101.36,0,0,1,35.62-21.91,135.19,135.19,0,0,1,88.69,0,103.27,103.27,0,0,1,35.8,21.91,100.72,100.72,0,0,1,24,35.8q8.72,21.37,8.73,49.15t-8.55,49.33q-8.55,21.55-23.69,36a101.15,101.15,0,0,1-35.8,21.91A130.9,130.9,0,0,1,743,566.7,128.16,128.16,0,0,1,698.08,559a100,100,0,0,1-35.62-22.26,102.87,102.87,0,0,1-23.51-36Q630.4,479.43,630.4,452Zm64.11,0q0,32.42,13.18,48.44t35.26,16q22.44,0,35.62-16T791.75,452q0-32.06-13-48.09t-35.44-16q-22.09,0-35.44,15.85T694.52,452Z" transform="translate(-435.56 -64.64)"/><path class="cls-2" d="M1603.5,637.47c-16-158,59.88-311.37,192.67-398.44,105.26-69,266-148.62,469-170.19,57.74-6.14,109.61-5.25,156.06.66C2637.69,97,2773.63,317.77,2702.59,524,2656,659.27,2583.92,826.45,2482.65,950.44c-186,227.75-557.44,62.54-610.92,37.09-4.18-2-8.38-3.9-12.6-5.82C1821.89,964.79,1626.57,865.64,1603.5,637.47Z" transform="translate(-435.56 -64.64)"/><path class="cls-1" d="M1493.73,867.07q-9.43,2.57-29.54,5.14a314.42,314.42,0,0,1-39.81,2.57,178.47,178.47,0,0,1-34.67-3q-15-3-25.25-10.7T1349,839.67q-5.14-13.68-5.14-36V670.16H1179.53V867.07q-9.43,2.57-29.54,5.14a314.39,314.39,0,0,1-39.81,2.57,178.45,178.45,0,0,1-34.67-3q-15-3-25.26-10.7t-15.41-21.4q-5.14-13.68-5.14-36v-452q9.41-1.71,30-4.71a273.61,273.61,0,0,1,39.38-3,178.67,178.67,0,0,1,34.67,3q15,3,25.25,10.7t15.41,21.4q5.14,13.71,5.14,36V552h164.37V351.69q9.41-1.71,30-4.71a273.58,273.58,0,0,1,39.38-3,178.65,178.65,0,0,1,34.67,3q15,3,25.26,10.7t15.41,21.4q5.14,13.71,5.14,36Z" transform="translate(-435.56 -64.64)"/><path class="cls-1" d="M1579.34,610.24q0-66.78,21-118.14t57.36-86q36.38-34.67,85.61-52.65t106.59-18q57.35,0,106.59,18a248.2,248.2,0,0,1,86,52.65q36.8,34.67,57.79,86t21,118.14q0,66.78-20.55,118.57t-56.93,86.47q-36.4,34.67-86,52.65t-107.87,18q-58.23,0-107.87-18.41T1656.39,814q-36-35.09-56.5-86.47T1579.34,610.24Zm154.1,0q0,77.91,31.68,116.43t84.75,38.52q53.93,0,85.61-38.52t31.68-116.43q0-77.05-31.25-115.58t-85.18-38.52q-53.09,0-85.18,38.1T1733.44,610.24Z" transform="translate(-435.56 -64.64)"/><path class="cls-1" d="M2181.18,610.24q0-66.78,21-118.14t57.36-86q36.38-34.67,85.61-52.65t106.59-18q57.35,0,106.59,18a248.2,248.2,0,0,1,86,52.65q36.8,34.67,57.79,86t21,118.14q0,66.78-20.55,118.57t-56.93,86.47q-36.4,34.67-86,52.65t-107.87,18q-58.23,0-107.87-18.41T2258.23,814q-36-35.09-56.5-86.47T2181.18,610.24Zm154.1,0q0,77.91,31.68,116.43t84.75,38.52q53.93,0,85.61-38.52T2569,610.24q0-77.05-31.25-115.58t-85.18-38.52q-53.09,0-85.18,38.1T2335.28,610.24Z" transform="translate(-435.56 -64.64)"/><path class="cls-1" d="M3005.6,884.19q-14.57,0-33.39-.86t-39-3.42q-20.12-2.57-40.24-6.42a202,202,0,0,1-37.24-10.7q-47.09-18-47.09-62.5V400.49q0-18,9.84-27.82t27-15.84A359.4,359.4,0,0,1,2923.42,341q41.09-3.85,73.63-3.85,66.78,0,121.14,16.27t93.32,50.08q38.95,33.83,60.36,85.18t21.4,121.57q0,68.5-20.55,119.43t-58.64,85.61q-38.1,34.67-91.18,51.79T3005.6,884.19Zm-47.94-125q9.41,1.72,23.11,3t25.68,1.28q29.09,0,53.51-8.56a107.39,107.39,0,0,0,41.95-26.54q17.54-18,27.4-46.66t9.85-68.92q0-77.05-36-116t-95.89-39q-12,0-24.4.85t-25.25,2.57Z" transform="translate(-435.56 -64.64)"/></svg>